<?xml version="1.0" encoding="UTF-8"?>
<svg width="262px" height="49px" viewBox="0 0 262 49" version="1.1" xmlns="http://www.w3.org/2000/svg" xmlns:xlink="http://www.w3.org/1999/xlink">
    <!-- Generator: Sketch 51.1 (57501) - http://www.bohemiancoding.com/sketch -->
    <title>Group 29</title>
    <desc>Created with Sketch.</desc>
    <defs>
        <polygon id="path-1" points="0.476678343 0.451079637 23.6590301 0.451079637 23.6590301 31.8247423 0.476678343 31.8247423"></polygon>
        <polygon id="path-3" points="0.484235638 0.36371134 30.7291398 0.36371134 30.7291398 48.2897678 0.484235638 48.2897678"></polygon>
    </defs>
    <g id="Page-1" stroke="none" stroke-width="1" fill="none" fill-rule="evenodd">
        <g id="Logotype" transform="translate(-679.000000, -1033.000000)">
            <g id="Group-29" transform="translate(679.000000, 1033.000000)">
                <path d="M20.7313,29.8440309 C14.3778,33.0795464 23.0053,42.055134 25.0463,45.4012784 C24.9268,46.9667526 21.6308,48.3887629 17.8568,48.4311959 C12.0928,48.4963608 7.5693,44.4066289 3.6263,40.598268 C-5.6127,31.676732 5.5958,27.2379381 6.6263,22.6561856 C7.2693,19.7965052 2.4158,15.4961237 6.0203,9.7621134 C8.5043,5.81129897 12.9913,2.254 17.6788,2.19237113 C22.2628,2.13175258 24.9078,4.08114433 25.4478,5.65571134 C23.9283,12.3515361 22.9503,13.5245052 26.5058,17.5662474 L26.2178,17.5662474 C22.1473,12.4414536 23.9338,11.0123711 21.3253,6.33817526 C20.2988,4.49840206 19.7098,2.71924742 17.5788,2.793 C14.7898,2.89049485 13.0763,5.978 12.0748,8.78817526 C9.7483,15.3132577 16.0888,20.125866 15.4828,22.6561856 C14.3438,27.4101959 2.0413,31.6423814 10.2723,41.8788351 C12.3668,44.4839175 14.7598,48.1422474 17.8043,48.0477835 C24.8883,47.8290515 12.7768,34.4475052 20.4433,29.8440309 L20.7313,29.8440309 Z" id="Fill-1" fill="#2C2C2C"></path>
                <path d="M34.1734,30.4231907 C37.6494,27.6478711 39.2239,17.3124072 38.7909,17.7165309 C38.0474,18.4096031 36.5009,25.288799 30.1774,30.4231907 C25.8144,33.9658402 36.4039,48.429933 38.0174,48.0480361 C40.2699,47.5145928 27.5249,35.7313557 34.1734,30.4231907 M41.4819,30.4231907 C36.9114,34.3573351 47.6519,48.9163969 38.0699,48.4309433 C32.8529,48.1667474 16.7809,35.0468711 22.9044,30.4231907 C26.8809,27.4205515 30.6174,23.8526443 34.0539,20.6888608 C36.0944,18.8106959 33.8684,17.0482113 38.3799,17.2664381 C41.1894,17.4028299 46.3584,18.098933 47.9829,20.6888608 C50.5384,24.7654588 45.3599,27.085634 41.4819,30.4231907" id="Fill-3" fill="#2C2C2C"></path>
                <path d="M68.52475,47.6187052 C68.59125,47.8056124 68.61775,47.892499 68.65425,48.0480866 L59.65325,48.0480866 C59.61675,47.892499 59.59025,47.8056124 59.52375,47.6187052 C60.66375,46.974633 58.33825,42.8106433 55.40725,37.8232515 C49.20325,32.3049423 59.11125,27.358468 62.45575,24.7357052 C66.69725,21.1092 63.55075,20.7353856 61.82225,20.7353856 C61.03025,20.7353856 60.86775,21.4138082 60.03275,22.298334 C56.43275,26.211767 44.10375,31.5345814 50.85675,37.9217567 C54.03975,43.3243856 56.32775,47.0332309 57.83175,47.6187052 C57.89825,47.8056124 57.92475,47.892499 57.96125,48.0480866 L48.96075,48.0480866 C48.92425,47.892499 48.89775,47.8056124 48.83125,47.6187052 C49.97125,46.974633 47.74575,43.0298804 44.73625,37.9217567 C37.97975,31.5952 50.23625,26.2036845 53.85675,22.4286639 C54.59125,20.8859216 53.04625,20.4403753 51.01875,19.730633 C50.90075,19.5785814 50.83925,19.5023031 50.71125,19.3477258 C53.23825,18.5369526 54.41425,18.1055505 56.84775,17.2664887 C58.61175,19.2037567 59.88525,20.2888289 60.08675,21.7603443 C60.74775,19.750334 59.72425,17.2346639 61.63575,17.2664887 C64.88675,17.3210454 73.16825,20.1968907 68.83075,24.4876742 C65.41075,27.1872206 55.04075,32.2498804 61.49175,37.8232515 C64.65275,43.2026433 67.07825,47.0913237 68.52475,47.6187052" id="Fill-5" fill="#2C2C2C"></path>
                <path d="M77.83405,39.8464969 C78.02105,40.0121876 78.11455,40.095033 78.30205,40.2612289 C81.21655,45.7669093 80.00055,48.4856515 77.39205,48.4310948 C70.92805,48.2967237 67.19155,39.9919814 64.09105,35.1531052 C64.25505,28.2926 79.82555,24.1361876 72.44355,18.1662701 L70.17305,18.1662701 C70.00955,17.9869402 69.92705,17.8965175 69.76205,17.7161773 L72.03205,17.7161773 C69.57505,15.0348165 68.73455,14.9054969 69.34655,11.2249402 C71.86205,10.597033 73.13055,10.2459505 75.67705,9.53216701 C74.73855,14.3685175 75.24055,14.615033 78.08655,17.7161773 C79.94655,17.7161773 80.87605,17.7161773 82.73605,17.7166825 C82.90155,17.8970227 82.98405,17.9874454 83.14805,18.1667753 L78.49855,18.1667753 C85.84305,24.0791052 70.66855,28.5037546 70.02755,34.9237649 C72.06105,39.1342289 75.42355,42.9410742 77.51205,42.9410742 C78.55655,42.9410742 78.28055,41.2947753 77.83405,39.8464969" id="Fill-7" fill="#2C2C2C"></path>
                <path d="M101.23155,25.4880825 C97.12755,28.0537629 94.47255,28.2548144 95.71555,26.0331443 C96.49455,24.8243093 97.51255,23.395732 97.59905,21.9949381 C97.64805,21.2033608 98.67055,21.4791753 92.42055,25.5406186 C89.04705,28.0254742 79.36655,32.4470928 85.72905,37.9214536 C88.91205,43.3245876 91.20005,47.0329278 92.70455,47.6189072 C92.77105,47.8058144 92.79705,47.892701 92.83405,48.0477835 L83.83305,48.0477835 C83.79605,47.892701 83.77005,47.8058144 83.70355,47.6189072 C84.84355,46.9743299 82.56005,42.9310722 79.60805,37.9214536 C72.99855,31.7939278 85.09255,26.2559175 88.70955,22.595567 C89.49555,20.6103093 87.90105,20.4410825 85.87305,19.7313402 C85.75555,19.5797938 85.69405,19.5030103 85.56605,19.348433 C88.11105,18.5376598 89.29555,18.1062577 91.74105,17.267701 C94.30305,20.0642371 97.04055,20.6603196 93.72655,24.2944021 C102.60905,17.4071237 96.34705,18.3153918 96.78355,17.617268 C97.19005,16.967134 99.00505,17.2732577 100.97455,18.4169278 C103.90605,20.1066701 105.25255,22.9739278 101.23155,25.4880825" id="Fill-9" fill="#2C2C2C"></path>
                <g id="Group-13" transform="translate(95.000000, 16.811647)">
                    <mask id="mask-2" fill="white">
                        <use xlink:href="#path-1"></use>
                    </mask>
                    <g id="Clip-12"></g>
                    <path d="M11.1595,13.3451753 C6.759,14.2640515 4.594,16.1149381 7.213,20.6239485 C7.213,20.6239485 11.185,27.3091649 12.6245,27.3091649 C13.2365,27.3091649 12.9385,25.9422165 11.82,23.4497835 C7.93,17.0514948 6.1865,16.6221134 11.1595,13.3451753 M22.443,26.1296289 C24.581,30.5537732 22.7185,31.6196495 20.451,31.6196495 C20.451,31.6196495 18.4335,33.734732 12.4245,24.3848247 C15.2415,29.7869485 13.826,31.6196495 11.27,31.6196495 C9.902,31.6196495 7.882,30.4577938 2.305,23.1375979 C-3.7335,15.2112165 6.6735,13.9149897 11.9955,12.8011237 C14.196,11.3791134 15.642,10.5683402 17.498,8.81595876 C25.0355,1.6983299 14.0645,0.125278351 13.1515,1.90241237 C13.1515,1.90241237 12.9365,2.54698969 14.578,3.10872165 C15.399,3.38908247 16.304,4.05083505 16.7415,4.75603093 C17.5895,6.20683505 13.3255,9.86516495 10.5815,10.8108144 C8.066,11.6776598 8.5695,10.5941031 10.4075,8.15572165 C11.7445,6.3811134 11.945,4.71208247 12.1215,3.92505155 C12.2405,3.35624742 12.217,2.48990722 12.65,1.50586598 C13.1735,0.316226804 15.073,0.456154639 15.073,0.456154639 C24.533,1.14670103 26.445,5.73148454 19.463,11.9484227 C14.0925,15.3961031 12.682,14.6515052 15.8865,20.2440722 C15.8865,20.2440722 20.224,27.4996082 21.841,27.3091649 C21.841,27.3091649 22.7865,27.3571546 21.9235,25.6229588 C22.1325,25.8270412 22.2365,25.9280722 22.443,26.1296289" id="Fill-11" fill="#2C2C2C" mask="url(#mask-2)"></path>
                </g>
                <path d="M146.6993,42.0244711 C146.6993,42.0244711 147.9588,48.4313474 141.7303,48.4313474 C134.7458,48.4313474 130.6158,45.0478216 130.6158,45.0478216 C129.1388,42.5735742 121.4083,33.8126773 126.3163,30.8630794 C126.4458,30.8615639 126.5108,30.8610588 126.6403,30.8595433 C122.6653,35.0720278 138.5193,48.8834608 141.6778,48.0479351 C145.4923,47.0391412 136.9923,35.5736464 135.8108,31.3232753 C135.9978,29.5688732 137.6703,28.5807907 138.2343,25.8953887 C139.5448,20.7539247 134.9298,20.3139351 132.5823,17.2567392 C129.3843,13.0922443 130.2413,11.5010072 132.1308,6.75255361 C132.1308,6.75255361 135.2873,1.94701753 141.1913,1.9717701 C147.3478,1.99702784 149.0688,4.90722371 149.0688,4.90722371 C147.9248,9.66173918 146.3648,12.6613474 149.0323,15.8902959 L148.7083,15.8902959 C144.8308,12.3845227 146.7133,2.01723402 141.0913,2.45671856 C135.9868,2.85528557 134.2268,13.7246979 140.1793,15.8902959 C144.0208,17.850801 146.7013,19.0550897 149.8388,20.8236361 C154.2118,25.154832 148.3758,26.6945433 146.2763,30.0770588 C142.9923,35.366533 143.4718,34.2021515 146.6993,42.0244711" id="Fill-14" fill="#2C2C2C"></path>
                <path d="M161.6832,39.8464969 C161.8702,40.0121876 161.9637,40.095033 162.1512,40.2612289 C165.0662,45.7669093 163.8502,48.4856515 161.2407,48.4310948 C154.7777,48.2962186 151.0412,39.9914763 147.9407,35.1531052 C148.0947,28.4143423 164.1567,24.800466 156.3297,18.1677856 L154.0637,18.1677856 C153.8992,17.9879505 153.8162,17.898033 153.6497,17.7176928 C154.5562,17.7171876 155.0092,17.7171876 155.9157,17.7171876 C153.4397,15.0353216 152.5842,14.6569608 153.1962,10.4742804 C155.7117,9.87112577 156.9802,9.57257938 159.5267,8.97094021 C158.5882,13.8502289 159.0987,14.615033 161.9587,17.7171876 L166.5977,17.7171876 C166.7642,17.8975278 166.8472,17.9879505 167.0112,18.1672804 L162.3722,18.1672804 C170.0027,24.5069711 154.5322,28.5775072 153.8772,34.9237649 C155.9107,39.1342289 159.2732,42.9410742 161.3612,42.9410742 C162.4052,42.9410742 162.1302,41.2947753 161.6832,39.8464969" id="Fill-16" fill="#2C2C2C"></path>
                <path d="M187.5582,46.3893608 C187.6807,46.6363814 187.7367,46.7545876 187.8362,46.9768557 C185.3932,47.7002371 184.1157,48.0013093 181.3642,48.3948247 C180.3977,48.545866 180.1082,47.4375567 180.1082,47.4375567 C179.3212,45.4038041 177.9557,43.3478247 175.8927,39.9491443 C178.8757,45.3371237 178.2337,48.5014124 175.3172,48.4311959 C168.9877,48.2791443 165.2952,39.908732 162.2677,35.1532062 C160.3312,29.9571856 170.5707,26.2155052 173.0347,22.1131443 C173.4727,18.5310928 171.5132,19.0589794 169.0752,18.6639485 C168.9347,18.5058351 168.8632,18.4265258 168.7187,18.2674021 C171.6362,17.8683299 173.0877,17.6672784 176.0027,17.2671959 C185.1992,23.2153918 169.3767,28.7185464 168.3477,34.923866 C170.3812,39.1343299 173.5282,42.9411753 175.3652,42.9411753 C176.3727,42.9411753 176.2767,41.326701 174.2817,37.2450515 C168.5352,31.1493505 180.7432,26.3362371 183.8837,22.2419588 C184.5972,19.0938351 182.3577,18.9599691 180.2602,18.6634433 C180.1202,18.5053299 180.0482,18.4265258 179.9037,18.2668969 C182.6502,17.8683299 184.0152,17.6667732 186.7587,17.2671959 C193.5592,20.8436907 187.3187,24.6586186 184.6882,27.2808763 C178.7522,33.199268 178.1892,32.7375567 182.2302,40.3643814 C185.2647,45.354299 185.8542,46.0024124 187.5582,46.3893608" id="Fill-18" fill="#2C2C2C"></path>
                <g id="Group-22" transform="translate(182.000000, 0.141544)">
                    <mask id="mask-4" fill="white">
                        <use xlink:href="#path-3"></use>
                    </mask>
                    <g id="Clip-21"></g>
                    <path d="M23.24715,24.2804598 C29.68515,18.5762536 19.55565,17.1421196 18.91365,17.5750371 C18.53515,17.8296351 18.78365,18.5282639 18.48215,19.7194186 C17.30465,24.369367 14.52965,26.9037278 10.74815,28.9677897 C4.45465,32.4023361 12.87215,43.1747588 16.51865,43.7859959 C17.64765,43.9749237 16.89065,40.0609856 15.55565,37.1977691 C9.66865,31.8668722 20.04265,26.8173464 23.24715,24.2804598 M28.81565,46.3238928 C28.93515,46.5678825 28.98965,46.6845732 29.08615,46.9038103 C26.62215,47.5893052 25.33665,47.8747175 22.58515,48.2530784 C21.58265,48.441501 21.35115,47.3574392 21.35115,47.3574392 C20.53515,45.1903258 18.94465,42.842367 16.73765,39.1895938 C20.56315,46.4754392 18.12315,48.2561093 15.60015,48.2894495 C9.82915,48.366233 -3.46635,34.5310577 1.62165,30.5090165 C5.76965,27.2305629 9.46115,23.6389134 13.08365,20.0871711 C14.86665,18.3383258 13.19315,17.1502021 17.06215,17.1249443 C19.85265,17.1072639 22.19515,18.1014082 23.82165,19.302666 C20.60865,15.3619546 18.76565,15.1689856 20.13765,8.43982062 C20.72365,5.56650103 20.63165,4.32786186 19.35915,3.22409897 C19.40315,2.98920206 19.42365,2.8740268 19.46265,2.65175876 C22.83415,1.4853567 24.49365,0.974645361 27.66165,0.363408247 C26.98515,4.48799588 26.26065,8.60399588 25.48815,12.7119134 C26.39215,15.5023876 27.97665,17.8422639 30.24365,19.7300268 C31.70365,23.7480268 29.87065,26.476367 24.74515,27.913532 C18.37515,30.9682021 17.92265,35.0372227 23.38715,40.1195835 C26.48165,45.2100268 27.15315,45.942501 28.81565,46.3238928" id="Fill-20" fill="#2C2C2C" mask="url(#mask-4)"></path>
                </g>
                <path d="M212.0467,11.5805186 C212.6037,8.13182784 215.0537,4.04563196 216.9617,4.04563196 C218.8697,4.04563196 219.4807,8.13182784 218.9237,11.5805186 C218.3667,15.0297144 218.5667,15.9859722 216.6587,15.9859722 C214.7502,15.9859722 211.4897,15.0297144 212.0467,11.5805186 M222.2222,47.6187557 C222.2882,47.8056629 222.3147,47.8925495 222.3512,48.047632 L213.3512,48.047632 C213.3147,47.8925495 213.2882,47.8056629 213.2222,47.6187557 C214.3617,46.9741784 212.0777,42.9314258 209.1262,37.9218072 C202.3697,31.5952505 214.6267,26.2037351 218.2467,22.4287144 C218.9812,20.8859722 217.4372,20.4404258 215.4087,19.7306835 C215.2912,19.578632 215.2292,19.5023536 215.1012,19.3477763 C217.6282,18.5370031 218.8047,18.105601 221.2382,17.2665392 C227.6837,20.4379 222.4057,23.8380959 220.1522,26.3365907 C215.3437,31.6684979 212.3382,30.7137557 215.2472,37.9218072 C218.4307,43.3244361 220.7187,47.0332814 222.2222,47.6187557" id="Fill-23" fill="#2C2C2C"></path>
                <path d="M229.52305,30.4231907 C232.99905,27.6478711 234.57505,17.3108918 234.14055,17.7165309 C233.39655,18.4101082 231.85105,25.2877887 225.52605,30.4231907 C221.16255,33.9658402 231.75305,48.429933 233.36705,48.0480361 C235.62005,47.5140876 222.87455,35.7313557 229.52305,30.4231907 M236.83155,30.4231907 C232.26105,34.3573351 243.00105,48.9163969 233.41955,48.4309433 C228.20255,48.1667474 212.13005,35.0468711 218.25355,30.4231907 C222.23005,27.4205515 225.96705,23.8526443 229.40305,20.6888608 C231.44405,18.8106959 229.21805,17.0482113 233.72955,17.2664381 C236.53905,17.4028299 241.70755,18.098933 243.33205,20.6888608 C245.88805,24.7654588 240.70955,27.085634 236.83155,30.4231907" id="Fill-25" fill="#2C2C2C"></path>
                <path d="M255.7054,44.7762 C255.7054,44.7762 255.9194,48.4309938 251.7429,48.4309938 C247.3864,48.4309938 244.6524,46.4654371 244.6524,46.4654371 C242.6929,42.4651175 239.1754,37.7525299 237.7159,34.2861588 L238.0404,34.2861588 C241.1264,39.0805814 249.1479,48.9790866 251.6904,48.0480866 C253.6794,47.3196536 248.4449,38.8012309 245.3979,36.060767 C242.7919,33.9426536 241.5554,33.5809629 240.7249,32.4650763 C241.6659,27.2917876 250.1774,24.9382722 248.8134,19.6351588 C248.8134,19.6351588 248.0564,17.2664887 252.1609,17.2664887 C256.3014,17.2664887 259.2974,18.6627361 259.2974,18.6627361 C261.0834,20.6793134 262.4804,21.0420144 260.6199,23.2076124 L260.2954,23.2076124 C263.7529,18.4308701 254.6599,17.7165814 252.5719,17.7165814 C250.2324,17.7165814 253.7734,20.263066 254.4719,23.1550763 C254.8119,24.4795918 254.2564,25.408066 253.4084,27.1680247 C248.2269,34.613499 253.1249,36.8437567 255.7054,44.7762" id="Fill-27" fill="#2C2C2C"></path>
            </g>
        </g>
    </g>
</svg>