<?xml version="1.0" encoding="UTF-8"?>
<svg width="505px" height="55px" viewBox="0 0 505 55" version="1.1" xmlns="http://www.w3.org/2000/svg" xmlns:xlink="http://www.w3.org/1999/xlink">
    <!-- Generator: Sketch 51.1 (57501) - http://www.bohemiancoding.com/sketch -->
    <title>Group</title>
    <desc>Created with Sketch.</desc>
    <defs>
        <polygon id="path-1" points="0 0.0113 45.9397 0.0113 45.9397 52 0 52"></polygon>
        <polygon id="path-3" points="0.9937 0.9245 28.0687 0.9245 28.0687 46 0.9937 46"></polygon>
        <polygon id="path-5" points="0.8184 0.9245 27.8934 0.9245 27.8934 46 0.8184 46"></polygon>
        <polygon id="path-7" points="0.466 0.6351 44.03 0.6351 44.03 55 0.466 55"></polygon>
    </defs>
    <g id="Page-1" stroke="none" stroke-width="1" fill="none" fill-rule="evenodd">
        <g id="Logotype" transform="translate(-317.000000, -357.000000)">
            <g id="Group" transform="translate(317.000000, 356.000000)">
                <g id="Group-3" transform="translate(0.000000, 3.364700)">
                    <mask id="mask-2" fill="white">
                        <use xlink:href="#path-1"></use>
                    </mask>
                    <g id="Clip-2"></g>
                    <path d="M45.2197,34.0703 L45.9397,48.6153 C43.9957,49.9123 36.7227,52.0003 29.0907,52.0003 C13.6807,52.0003 -0.0003,42.2793 -0.0003,26.0063 C-0.0003,9.7323 13.6807,0.0113 29.0907,0.0113 C38.3797,0.0113 44.2117,1.9553 45.9397,3.3233 L45.2197,17.8693 L44.6437,17.8693 C42.4837,2.9643 34.3467,0.6593 29.0907,0.6593 C21.0977,0.6593 17.7137,6.2763 17.7137,26.0063 C17.7137,45.8073 21.3137,51.3523 29.0907,51.3523 C33.9867,51.3523 42.1957,48.4003 44.6437,34.0703 L45.2197,34.0703 Z" id="Fill-1" fill="#2C2C2C" mask="url(#mask-2)"></path>
                </g>
                <path d="M73.0806,38.0834 C73.0806,25.0504 73.0086,21.4494 69.1206,21.4494 C65.1596,21.4494 65.0876,25.0504 65.0876,38.0834 C65.0876,51.1164 65.1596,54.7164 69.1206,54.7164 C73.0086,54.7164 73.0806,51.1164 73.0806,38.0834 M87.6976,38.0834 C87.6976,47.5164 82.0096,55.3644 69.1206,55.3644 C56.2306,55.3644 50.5426,47.5164 50.5426,38.0834 C50.5426,28.5784 56.2306,20.8014 69.1206,20.8014 C82.0096,20.8014 87.6976,28.5784 87.6976,38.0834" id="Fill-4" fill="#2C2C2C"></path>
                <path d="M131.3291,54.1406 L131.3291,54.7166 L113.3281,54.7166 L113.3281,54.1406 C116.0641,53.3486 116.2081,50.1806 116.2081,46.5086 L116.2081,32.0346 C116.2081,27.9306 114.6961,25.9866 111.2391,25.9866 C109.6551,25.9866 107.9991,27.2826 106.9911,28.7946 L106.9911,46.5796 C106.9911,50.5406 107.3511,53.4206 109.9431,54.1406 L109.9431,54.7166 L91.9421,54.7166 L91.9421,54.1406 C94.6781,53.3486 94.7501,50.3246 94.7501,46.5796 L94.7501,29.0106 C94.7501,26.4906 93.9581,25.4826 91.0061,24.4026 L91.0061,23.8266 L106.9911,20.8016 L106.9911,27.7866 C108.8631,23.9706 112.6801,20.8016 116.5681,20.8016 C122.3291,20.8016 128.3771,23.1056 128.3771,31.7466 L128.3771,46.5086 C128.3771,50.4686 128.8091,53.4926 131.3291,54.1406" id="Fill-6" fill="#2C2C2C"></path>
                <g id="Group-10" transform="translate(131.000000, 9.364700)">
                    <mask id="mask-4" fill="white">
                        <use xlink:href="#path-3"></use>
                    </mask>
                    <g id="Clip-9"></g>
                    <path d="M27.6367,38.5835 L28.0687,38.8715 C27.2047,42.6875 23.0287,46.0005 17.6997,46.0005 C12.0117,46.0005 5.5307,43.6955 5.5307,34.9835 L5.5307,12.7335 L0.9937,12.7335 L0.9937,12.0845 L5.5307,12.0845 L5.5307,2.4365 L17.6277,0.9245 L17.6277,12.0845 L26.9167,12.0845 L26.9167,12.7335 L17.6277,12.7335 L17.6277,34.7675 C17.6277,38.7995 19.0677,40.7435 23.2437,40.7435 C25.3327,40.7435 26.7727,39.5915 27.6367,38.5835" id="Fill-8" fill="#2C2C2C" mask="url(#mask-4)"></path>
                </g>
                <path d="M193.8013,31.9628 C191.3533,34.7708 187.1763,35.0588 184.2963,32.6828 C182.9283,31.3868 181.9913,29.8748 181.9913,28.2178 C181.9913,27.2818 179.6883,27.7868 176.7353,32.2508 L176.7353,46.5798 C176.7353,50.5408 177.0953,53.4208 179.6883,54.1408 L179.6883,54.7168 L161.6863,54.7168 L161.6863,54.1408 C164.4223,53.3488 164.4943,50.2528 164.4943,46.5798 L164.4943,29.0108 C164.4943,26.4898 163.6303,25.4828 160.6783,24.4018 L160.6783,23.8258 L176.7353,20.8018 L176.7353,30.8828 C181.8483,23.1778 184.0083,22.3138 186.1683,21.3058 C188.1843,20.3698 191.2083,20.8018 193.0803,22.4578 C195.8893,24.9058 196.2493,29.2268 193.8013,31.9628" id="Fill-11" fill="#2C2C2C"></path>
                <path d="M214.5347,37.1474 C208.6307,38.4434 208.7027,42.8354 208.7027,46.2204 C208.7027,46.2204 208.6307,50.9724 211.5107,50.9724 C212.7347,50.9724 213.7427,49.9644 214.5347,48.2364 L214.5347,37.1474 Z M232.5367,50.1084 C231.5287,53.2764 227.7837,55.3644 223.2477,55.3644 C223.2477,55.3644 215.2557,55.3644 214.6067,48.8844 C213.6717,52.6284 209.9987,55.3644 204.8867,55.3644 C202.1497,55.3644 195.8857,54.1404 195.8857,48.0204 C195.8857,40.8194 201.7187,39.4514 214.5347,36.4274 L214.5347,31.8184 C214.5347,24.3304 210.2867,20.2974 205.3177,22.8904 C205.3177,22.8904 203.7337,23.8264 206.1817,24.6904 C207.4067,25.1224 208.1987,26.1304 208.7747,27.4264 C209.8547,30.0904 208.6307,32.9704 205.9667,34.1234 C203.3737,35.1314 200.4217,33.9074 199.3417,31.3144 C198.6217,29.4424 198.9817,27.2824 200.2057,25.9864 C201.0697,25.0504 202.3657,23.7534 205.0297,22.3144 C208.2697,20.5854 211.7987,20.8014 211.7987,20.8014 C221.2317,20.8014 226.4877,26.7064 226.4877,35.2034 L226.4877,45.9324 C226.4877,45.9324 226.4877,51.1164 229.9437,50.9724 C229.9437,50.9724 231.7447,50.9724 232.1047,49.7484 L232.5367,50.1084 Z" id="Fill-13" fill="#2C2C2C"></path>
                <path d="M292.1509,49.4604 C292.1509,49.4604 288.2619,55.3644 275.8049,55.3644 C261.8369,55.3644 256.4359,51.6924 256.4359,51.6924 L256.4359,37.8674 L257.0839,37.8674 C258.2359,42.7634 264.5009,54.7164 275.8049,54.7164 C283.5099,54.7164 285.6709,45.1404 277.0299,38.7314 L265.9409,31.7464 C255.7149,25.3384 253.1959,16.5534 259.3159,8.8484 C259.3159,8.8484 263.2759,3.3764 275.0859,3.3764 C287.3979,3.3764 292.1509,6.6884 292.1509,6.6884 L292.1509,18.7854 L291.5029,18.7854 C290.0629,13.6014 286.6059,4.0244 275.0859,4.0244 C267.3089,4.0244 265.0769,12.6654 274.4369,18.7854 L285.5259,26.1304 C295.0309,32.3954 297.5509,41.6114 292.1509,49.4604" id="Fill-15" fill="#2C2C2C"></path>
                <g id="Group-19" transform="translate(295.000000, 9.364700)">
                    <mask id="mask-6" fill="white">
                        <use xlink:href="#path-5"></use>
                    </mask>
                    <g id="Clip-18"></g>
                    <path d="M27.4614,38.5835 L27.8934,38.8715 C27.0284,42.6875 22.8534,46.0005 17.5234,46.0005 C11.8354,46.0005 5.3554,43.6955 5.3554,34.9835 L5.3554,12.7335 L0.8184,12.7335 L0.8184,12.0845 L5.3554,12.0845 L5.3554,2.4365 L17.4524,0.9245 L17.4524,12.0845 L26.7404,12.0845 L26.7404,12.7335 L17.4524,12.7335 L17.4524,34.7675 C17.4524,38.7995 18.8924,40.7435 23.0684,40.7435 C25.1564,40.7435 26.5974,39.5915 27.4614,38.5835" id="Fill-17" fill="#2C2C2C" mask="url(#mask-6)"></path>
                </g>
                <path d="M365.5903,52.8447 L365.5903,53.4207 L351.7653,55.2927 C349.8203,55.5807 349.7483,53.9247 349.7483,53.9247 L349.7483,48.0197 C349.1733,51.7647 345.6453,55.3647 339.6683,55.3647 C333.9803,55.3647 328.0033,52.9887 328.0033,44.3477 L328.0033,28.3627 C328.0033,24.0417 328.1473,23.3937 323.9703,22.8177 L323.9703,22.2417 L340.3883,20.8017 L340.3883,44.1317 C340.3883,48.1637 341.3963,50.1087 345.0693,50.1087 C347.0843,50.1087 349.0283,49.1727 349.7483,46.0757 L349.7483,28.5787 C349.7483,24.1857 350.0363,23.2497 346.3643,22.8177 L346.3643,22.2417 L361.9173,20.8017 L361.9173,48.3077 C361.9173,51.7647 362.5663,52.4847 365.5903,52.8447" id="Fill-20" fill="#2C2C2C"></path>
                <g id="Group-24" transform="translate(368.000000, 0.364700)">
                    <mask id="mask-8" fill="white">
                        <use xlink:href="#path-7"></use>
                    </mask>
                    <g id="Clip-23"></g>
                    <path d="M28.188,31.3101 C28.188,24.6851 25.092,21.0851 21.419,21.0851 C17.891,21.0851 15.084,24.0381 15.084,36.2781 C15.084,45.3511 16.956,50.4641 22.211,50.4641 C24.948,50.4641 27.541,47.9431 28.188,45.7831 L28.188,31.3101 Z M44.03,52.5521 L44.03,53.1281 L30.205,54.9281 C28.188,55.2881 28.188,53.6321 28.188,53.6321 L28.188,47.2241 C27.037,52.3361 21.347,55.0001 16.235,55.0001 C6.226,55.0001 0.466,49.2401 0.466,37.9351 C0.466,25.9811 8.17,20.4371 18.54,20.4371 C24.156,20.4371 26.892,21.8051 28.188,23.6051 L28.188,8.8441 C28.188,6.3241 27.468,5.3161 24.516,4.2361 L24.516,3.6601 L40.357,0.6351 L40.357,47.8721 C40.357,51.4001 41.078,52.1921 44.03,52.5521 Z" id="Fill-22" fill="#2C2C2C" mask="url(#mask-8)"></path>
                </g>
                <path d="M416.561,12.0893 C416.561,8.2733 419.585,5.2483 423.402,5.2483 C427.218,5.2483 430.314,8.2733 430.314,12.0893 C430.314,15.9053 427.218,18.9293 423.402,18.9293 C419.585,18.9293 416.561,15.9053 416.561,12.0893 M433.266,54.1403 L433.266,54.7163 L415.265,54.7163 L415.265,54.1403 C418.001,53.3483 418.073,50.2523 418.073,46.5803 L418.073,29.0103 C418.073,26.4903 417.281,25.4823 414.329,24.4023 L414.329,23.8263 L430.314,20.8013 L430.314,46.5803 C430.314,50.5403 430.674,53.4213 433.266,54.1403" id="Fill-25" fill="#2C2C2C"></path>
                <path d="M459.2583,38.0834 C459.2583,25.0504 459.1863,21.4494 455.2983,21.4494 C451.3373,21.4494 451.2653,25.0504 451.2653,38.0834 C451.2653,51.1164 451.3373,54.7164 455.2983,54.7164 C459.1863,54.7164 459.2583,51.1164 459.2583,38.0834 M473.8753,38.0834 C473.8753,47.5164 468.1873,55.3644 455.2983,55.3644 C442.4083,55.3644 436.7203,47.5164 436.7203,38.0834 C436.7203,28.5784 442.4083,20.8014 455.2983,20.8014 C468.1873,20.8014 473.8753,28.5784 473.8753,38.0834" id="Fill-27" fill="#2C2C2C"></path>
                <path d="M502.8892,51.4765 C502.8892,51.4765 500.1532,55.3645 491.8002,55.3645 C483.0872,55.3645 478.9832,52.9165 478.9832,52.9165 L478.9832,43.4835 L479.6312,43.4835 C481.0722,50.1805 487.0482,54.7165 491.8002,54.7165 C496.9122,54.7165 498.0652,48.7405 492.5922,45.1405 L485.3202,40.7475 C478.5512,36.2835 476.7512,29.1545 481.1432,24.2585 C481.1432,24.2585 483.8082,20.8015 492.0162,20.8015 C500.2972,20.8015 503.7532,22.8175 503.7532,22.8175 L503.7532,30.1625 L503.1052,30.1625 C501.8092,23.6825 496.1932,21.4495 492.0162,21.4495 C487.3362,21.4495 485.1042,26.1305 491.3682,30.0905 L498.6412,34.6265 C505.1942,38.5875 506.8502,46.7245 502.8892,51.4765" id="Fill-29" fill="#2C2C2C"></path>
            </g>
        </g>
    </g>
</svg>